<svg xmlns="http://www.w3.org/2000/svg" aria-label="Loading..." viewBox="0 0 100 100"><rect fill="#555" height="6" opacity=".083" rx="3" ry="3" transform="rotate(-60 50 50)" width="25" x="72" y="47"/><rect fill="#555" height="6" opacity=".167" rx="3" ry="3" transform="rotate(-30 50 50)" width="25" x="72" y="47"/><rect fill="#555" height="6" opacity=".25" rx="3" ry="3" width="25" x="72" y="47"/><rect fill="#555" height="6" opacity=".333" rx="3" ry="3" transform="rotate(30 50 50)" width="25" x="72" y="47"/><rect fill="#555" height="6" opacity=".417" rx="3" ry="3" transform="rotate(60 50 50)" width="25" x="72" y="47"/><rect fill="#555" height="6" opacity=".5" rx="3" ry="3" transform="rotate(90 50 50)" width="25" x="72" y="47"/><rect fill="#555" height="6" opacity=".583" rx="3" ry="3" transform="rotate(120 50 50)" width="25" x="72" y="47"/><rect fill="#555" height="6" opacity=".667" rx="3" ry="3" transform="rotate(150 50 50)" width="25" x="72" y="47"/><rect fill="#555" height="6" opacity=".75" rx="3" ry="3" transform="rotate(180 50 50)" width="25" x="72" y="47"/><rect fill="#555" height="6" opacity=".833" rx="3" ry="3" transform="rotate(210 50 50)" width="25" x="72" y="47"/><rect fill="#555" height="6" opacity=".917" rx="3" ry="3" transform="rotate(240 50 50)" width="25" x="72" y="47"/></svg>